<svg width="20" height="20" viewBox="0 0 20 20" fill="none" xmlns="http://www.w3.org/2000/svg">
<path fill-rule="evenodd" clip-rule="evenodd" d="M12.9995 5H14.9995V10C14.9995 12.4709 15.189 13 15.9995 13C17.3039 13 17.9995 12.3832 17.9995 10C17.9995 4.71065 15.3466 2 9.99967 2C6.53563 2.00044 3.46541 4.23026 2.3934 7.52426C1.32139 10.8182 2.49117 14.428 5.29145 16.4671C8.09173 18.5062 11.8862 18.5114 14.6921 16.48L15.865 18.1C12.3576 20.6393 7.61449 20.6328 4.11414 18.0839C0.61379 15.5349 -0.848432 11.0228 0.491581 6.90532C1.83159 2.78783 5.66937 0.000544252 9.99955 0C16.4609 0 19.9995 3.6156 19.9995 10C19.9995 13.5449 18.3584 15 15.9995 15C14.6557 15 13.8866 14.5667 13.4644 13.6048C12.5657 14.4688 11.3446 15 9.99955 15C7.23812 15 4.99955 12.7614 4.99955 10C4.99955 7.23858 7.23812 5 9.99955 5C11.1252 5 12.1639 5.37194 12.9995 5.99963V5ZM12.9995 10C12.9995 11.6569 11.6564 13 9.99955 13C8.34269 13 6.99955 11.6569 6.99955 10C6.99955 8.34315 8.34269 7 9.99955 7C11.6564 7 12.9995 8.34315 12.9995 10Z" fill="#333333"/>
</svg>
