<svg width="18" height="21" viewBox="0 0 18 21" fill="none" xmlns="http://www.w3.org/2000/svg">
<path fill-rule="evenodd" clip-rule="evenodd" d="M7.01723 18.0036C7.02243 18.1265 7.00917 18.2464 6.9833 18.3677C6.93785 18.5809 6.85007 18.8065 6.72581 19.015C6.37259 19.6075 5.77254 20.0029 5 20.0029C3.1801 20.0029 2.46584 19.1101 1.57152 16.8743C0.965836 15.3601 0.680098 15.0029 0 15.0029L0 13.0029C1.8199 13.0029 2.53416 13.8958 3.42848 16.1315C4.03416 17.6458 4.3199 18.0029 5 18.0029C5 17.7128 4.99603 17.4557 4.98766 17.1077C4.96806 16.2919 4.96581 16.1253 5.0014 15.9072C5.01562 15.4311 5.13854 15.0933 5.385 14.7581C3.15319 14.2722 1.64792 13.2689 0.783974 11.6414L0.460337 10.8803C0.145045 9.97421 0 8.94753 0 7.76183C0 6.39627 0.416346 5.17529 1.19402 4.15467C0.951427 3.18453 0.98465 1.99922 1.52031 0.660602L1.69534 0.223196L2.14407 0.0796598C2.20415 0.0604421 2.27718 0.0430852 2.36299 0.0296179C3.23676 -0.107522 4.4801 0.219679 6.10555 1.26084C7.06377 1.03872 8.07285 0.926574 9.08877 0.926574C9.99663 0.926574 10.8995 1.0181 11.7616 1.19854C13.3431 0.208206 14.5522 -0.102401 15.4025 0.0297938C15.4873 0.0429808 15.5596 0.0600054 15.6192 0.0789L16.0707 0.222085L16.246 0.662158C16.7146 1.8389 16.795 2.92336 16.6245 3.87229C17.5185 4.945 18 6.26378 18 7.76183C18 9.02477 17.9095 9.97442 17.6494 10.8983L17.3749 11.6517C16.6563 13.2774 15.0715 14.292 12.6275 14.7752C12.8816 15.127 13 15.484 13 16.0029V17.0029C13 17.4875 13 17.5025 12.9989 18.0029C13.0012 18.0389 13.0042 18.0565 13.0074 18.0674C13.0066 18.0677 13 20.0029 13 20.0029C12.1482 20.0029 11.5149 19.5875 11.2034 18.9323C11.0419 18.5925 10.9936 18.2681 11 17.9887V16.0029C11 15.9191 10.9971 15.9142 10.7929 15.71C10.2471 15.1642 10 14.7524 10 14.0029V13.0983L10.9001 13.0079C13.5793 12.7389 15.0365 11.9948 15.5197 10.9078L15.7455 10.2906C15.9251 9.64522 16 8.85926 16 7.76183C16 6.59574 15.5929 5.63247 14.823 4.86286L14.3998 4.43984L14.5725 3.86696C14.726 3.35801 14.7624 2.75579 14.6001 2.0689C14.5731 2.07573 14.5451 2.08318 14.516 2.09128C13.9805 2.24035 13.312 2.56021 12.5064 3.09869L12.139 3.34429L11.7101 3.23792C10.8804 3.0322 9.98885 2.92657 9.08877 2.92657C8.08786 2.92657 7.09846 3.05392 6.18446 3.3031L5.73841 3.4247L5.35682 3.16366C4.52363 2.59367 3.83145 2.25471 3.27642 2.09637C3.23678 2.08506 3.19904 2.07494 3.16316 2.06592C2.96952 2.86091 3.04611 3.51406 3.24223 4.00416L3.47738 4.59181L3.04689 5.05582C2.3609 5.7952 2 6.69497 2 7.76183C2 8.73859 2.11434 9.54795 2.32388 10.1576L2.58557 10.7771C3.23974 12.0046 4.6292 12.7431 7.10658 13.0086L8 13.1044V14.0029C8 14.7524 7.75291 15.1642 7.20711 15.71C7.00291 15.9142 7 15.9191 7 16.0029L6.98276 16.1878C6.97136 16.2484 6.97136 16.405 6.98709 17.0596C6.99432 17.3607 6.99844 17.599 6.99963 17.848C7.01158 17.8996 7.01339 17.9328 7.01723 18.0036Z" fill="#333333"/>
</svg>
