<svg width="64" height="22" viewBox="0 0 64 22" fill="none" xmlns="http://www.w3.org/2000/svg">
<g clip-path="url(#clip0)">
<path d="M15.1433 6.65113C15.1433 7.97218 14.7454 9.26352 13.9999 10.3615C13.2544 11.4596 12.1949 12.3149 10.9556 12.8192C9.71638 13.3234 8.35309 13.454 7.03848 13.1942C5.72386 12.9344 4.51707 12.2961 3.57097 11.36C2.62487 10.4239 1.98204 9.23226 1.72389 7.93592C1.46575 6.63958 1.60391 5.29691 2.12088 4.078C2.63785 2.85909 3.51036 1.81878 4.62789 1.08885C5.74543 0.358921 7.0577 -0.0277849 8.39848 -0.0222804C9.28898 -0.0259593 10.1714 0.144143 10.9948 0.47821C11.8183 0.812277 12.5664 1.3037 13.1961 1.92411C13.8258 2.54453 14.3245 3.28166 14.6636 4.09298C15.0027 4.90429 15.1753 5.77373 15.1716 6.65113" fill="#E4003A"/>
<path d="M16.4023 6.28412C16.4023 6.28412 14.7768 19.0748 8.40446 19.0748C2.03212 19.0748 0.400932 6.28412 0.400932 6.28412C-0.160558 11.488 -0.122689 16.7378 0.513817 21.9333H16.2725C16.909 16.7378 16.9469 11.488 16.3854 6.28412" fill="black"/>
<path d="M40.2265 21.9277H40.7909V20.2149L41.2312 19.7199L42.7325 21.9444H43.4268L41.6714 19.3696L43.3195 17.4621H42.5914L41.1973 19.1305C41.0788 19.2806 40.9603 19.4363 40.8361 19.6143V17.4454H40.2717L40.2265 21.9277ZM39.2331 21.3216C38.9271 21.4527 38.5959 21.5171 38.2623 21.5106C38.0211 21.5259 37.7795 21.489 37.5544 21.4023C37.3293 21.3157 37.1262 21.1815 36.9594 21.0092C36.7926 20.8369 36.6662 20.6307 36.589 20.4051C36.5118 20.1795 36.4857 19.9399 36.5126 19.7033C36.4843 19.4621 36.5098 19.2178 36.5872 18.9874C36.6647 18.7569 36.7922 18.5459 36.961 18.3691C37.1297 18.1922 37.3356 18.0538 37.5643 17.9634C37.7929 17.873 38.0389 17.8329 38.2849 17.8458C38.6005 17.8376 38.9136 17.9024 39.1993 18.0349L39.346 17.5567C39.0115 17.414 38.6492 17.3457 38.2849 17.3565C37.9659 17.3385 37.6466 17.3875 37.3482 17.5001C37.0499 17.6128 36.7791 17.7865 36.554 18.0099C36.3288 18.2334 36.1544 18.5013 36.0422 18.7961C35.93 19.0909 35.8825 19.4058 35.903 19.7199C35.8746 20.0218 35.913 20.3262 36.0155 20.6121C36.1181 20.8979 36.2823 21.1585 36.4969 21.3757C36.7115 21.593 36.9714 21.7618 37.2587 21.8706C37.5459 21.9793 37.8537 22.0254 38.1607 22.0056C38.5744 22.019 38.9863 21.9451 39.3686 21.7887L39.2331 21.3216ZM35.0507 19.3696H33.2841V17.9181H35.158V17.4343H32.6914V21.9277H35.2596V21.4439H33.2841V19.8201H35.0507V19.3696ZM29.4799 19.8034H29.9653C30.6087 19.8034 31.1449 20.0647 31.1449 20.6709C31.1449 21.2771 30.5805 21.544 29.9709 21.544C29.8075 21.5579 29.6433 21.5579 29.4799 21.544V19.8034ZM29.4799 17.9126C29.6513 17.8835 29.8252 17.8705 29.9992 17.8736C30.5974 17.8736 30.9982 18.085 30.9982 18.6077C30.9982 19.0415 30.6313 19.3696 30.0161 19.3696H29.4799V17.9126ZM28.8872 21.9444C29.1904 21.9837 29.4959 22.0023 29.8016 22C30.3616 22.0576 30.9233 21.9068 31.3763 21.5774C31.5033 21.4637 31.6038 21.3244 31.671 21.1689C31.7382 21.0134 31.7706 20.8454 31.7658 20.6765C31.7621 20.4135 31.667 20.1598 31.4966 19.9574C31.3261 19.755 31.0905 19.6163 30.8289 19.5642C31.0463 19.4999 31.2376 19.3696 31.3754 19.1918C31.5132 19.0141 31.5906 18.798 31.5965 18.5743C31.6154 18.4085 31.5899 18.2406 31.5226 18.0874C31.4552 17.9343 31.3484 17.8011 31.2127 17.7012C30.8487 17.4517 30.4067 17.3374 29.9653 17.3787C29.6034 17.3745 29.242 17.4081 28.8872 17.4788V21.9444ZM26.686 17.1451C26.769 17.1346 26.8453 17.0946 26.9005 17.0327C26.9558 16.9708 26.9863 16.8911 26.9863 16.8087C26.9863 16.7262 26.9558 16.6466 26.9005 16.5847C26.8453 16.5227 26.769 16.4828 26.686 16.4722C26.6415 16.4722 26.5975 16.4809 26.5564 16.4976C26.5153 16.5144 26.478 16.539 26.4465 16.57C26.4151 16.6009 26.3901 16.6377 26.3731 16.6782C26.3561 16.7187 26.3473 16.7621 26.3473 16.8059C26.3451 16.8492 26.3516 16.8925 26.3667 16.9332C26.3818 16.9739 26.405 17.0112 26.4351 17.0428C26.4651 17.0745 26.5013 17.0999 26.5415 17.1175C26.5817 17.135 26.6251 17.1444 26.6691 17.1451H26.686ZM25.4104 17.1451C25.4934 17.1346 25.5697 17.0946 25.6249 17.0327C25.6802 16.9708 25.7107 16.8911 25.7107 16.8087C25.7107 16.7262 25.6802 16.6466 25.6249 16.5847C25.5697 16.5227 25.4934 16.4828 25.4104 16.4722C25.3667 16.473 25.3235 16.4822 25.2834 16.4993C25.2433 16.5165 25.207 16.5413 25.1766 16.5722C25.1462 16.6032 25.1222 16.6398 25.1062 16.6799C25.0902 16.72 25.0823 16.7628 25.083 16.8059C25.0807 16.8492 25.0873 16.8925 25.1024 16.9332C25.1175 16.9739 25.1407 17.0112 25.1708 17.0428C25.2008 17.0745 25.237 17.0999 25.2772 17.1175C25.3174 17.135 25.3608 17.1444 25.4047 17.1451H25.4104ZM24.3436 17.4621V20.1092C24.3436 21.5106 25.0435 22.0334 25.9805 22.0334C26.9174 22.0334 27.7076 21.4773 27.7076 20.087V17.4343H27.1432V20.1037C27.1432 21.088 26.7029 21.5273 26.0143 21.5273C25.3257 21.5273 24.9476 21.1047 24.9476 20.1037V17.4343L24.3436 17.4621ZM21.2788 21.9277H23.8244V21.4439H21.8715V17.4343H21.2788V21.9277Z" fill="black"/>
<path d="M63.8021 11.1947H62.1089V10.2604H63.8924V9.42621H61.0703V13.9196H63.9771V13.0855H62.0976V12.0177H63.7908L63.8021 11.1947ZM57.4749 13.9196H60.2971V13.0688H58.4796V9.42621H57.4749V13.9196ZM52.7112 9.42621V11.9343C52.7112 13.3635 53.3829 13.9975 54.5343 13.9975C55.6857 13.9975 56.4364 13.3357 56.4364 11.9454V9.42621H55.4091V12.0066C55.4091 12.8074 55.11 13.18 54.5682 13.18C54.0263 13.18 53.7441 12.7852 53.7441 12.0066V9.42621H52.7112ZM47.9193 9.42621V13.9196H48.9465V12.04H50.6398V13.9196H51.667V9.42621H50.7019V11.1502H49.0086V9.42621H47.9193ZM46.9428 13.002C46.6639 13.0999 46.3697 13.1488 46.0736 13.1466C45.8756 13.1614 45.6767 13.1332 45.4909 13.0642C45.3052 12.9951 45.137 12.8869 44.9982 12.7469C44.8594 12.607 44.7534 12.4389 44.6876 12.2543C44.6218 12.0697 44.5979 11.8732 44.6174 11.6785C44.5973 11.4834 44.6206 11.2863 44.6856 11.101C44.7506 10.9157 44.8558 10.7465 44.9938 10.6052C45.1318 10.4639 45.2994 10.3539 45.4849 10.2829C45.6703 10.2118 45.8693 10.1814 46.0679 10.1936C46.3663 10.1892 46.6623 10.2461 46.9372 10.3605L47.1516 9.55968C46.7955 9.40994 46.4096 9.3415 46.0228 9.35947C45.6958 9.33468 45.3671 9.37867 45.0587 9.48852C44.7502 9.59837 44.469 9.77157 44.2336 9.99664C43.9982 10.2217 43.8141 10.4935 43.6934 10.794C43.5728 11.0945 43.5183 11.4168 43.5337 11.7397C43.5149 12.0492 43.5646 12.359 43.6793 12.6478C43.7941 12.9365 43.9711 13.1972 44.1981 13.4119C44.4252 13.6267 44.6968 13.7902 44.9943 13.8913C45.2918 13.9924 45.6081 14.0286 45.9212 13.9975C46.327 14.0127 46.7317 13.9484 47.1121 13.8084L46.9428 13.002ZM39.8028 13.7083C40.207 13.8956 40.6488 13.9907 41.0954 13.9864C42.3484 13.9864 42.9297 13.3468 42.9297 12.5961C42.9297 11.9621 42.5572 11.545 41.7501 11.2503C41.1518 11.0334 40.9035 10.9055 40.9035 10.6163C40.9035 10.3271 41.1179 10.1825 41.5695 10.1825C41.8984 10.181 42.2231 10.2553 42.5177 10.3994L42.7435 9.58192C42.3772 9.42454 41.9802 9.34859 41.5808 9.35947C40.5084 9.35947 39.8536 9.91559 39.8536 10.7053C39.8536 11.3615 40.356 11.773 41.1123 12.04C41.6767 12.229 41.8799 12.3848 41.8799 12.6684C41.8799 12.952 41.6316 13.1522 41.1518 13.1522C40.7591 13.1447 40.3731 13.0496 40.023 12.8741L39.8028 13.7083ZM35.1802 9.42621V13.9196H36.2075V12.04H37.9007V13.9196H38.928V9.42621H37.912V11.1502H36.2187V9.42621H35.1802ZM34.2038 13.002C33.9267 13.0995 33.6344 13.1484 33.3402 13.1466C33.1422 13.1614 32.9433 13.1332 32.7575 13.0642C32.5718 12.9951 32.4036 12.8869 32.2648 12.7469C32.126 12.607 32.02 12.4389 31.9542 12.2543C31.8884 12.0697 31.8645 11.8732 31.884 11.6785C31.863 11.4837 31.8855 11.2867 31.9498 11.1014C32.0141 10.916 32.1188 10.7467 32.2563 10.6053C32.3939 10.4639 32.5612 10.3538 32.7465 10.2827C32.9317 10.2116 33.1305 10.1812 33.3289 10.1936C33.6272 10.1892 33.9233 10.2461 34.1981 10.3605L34.4126 9.55968C34.0564 9.40994 33.6705 9.3415 33.2837 9.35947C32.9567 9.33468 32.6281 9.37867 32.3196 9.48852C32.0112 9.59837 31.7299 9.77157 31.4945 9.99664C31.2592 10.2217 31.0751 10.4935 30.9544 10.794C30.8337 11.0945 30.7793 11.4168 30.7946 11.7397C30.7764 12.051 30.8272 12.3625 30.9436 12.6526C31.0599 12.9426 31.2391 13.2042 31.4684 13.4191C31.6978 13.634 31.972 13.797 32.2718 13.8969C32.5717 13.9968 32.89 14.0311 33.2047 13.9975C33.5896 14.0033 33.9723 13.9392 34.3336 13.8084L34.2038 13.002ZM27.9951 10.1492C28.7063 10.1492 29.0957 10.8443 29.0957 11.6618C29.0957 12.4793 28.695 13.1856 27.9951 13.1856C27.2952 13.1856 26.8662 12.5683 26.8662 11.6785C26.8662 10.7887 27.2783 10.1492 27.9951 10.1492ZM27.9951 9.34279C27.6877 9.34023 27.3832 9.4008 27.101 9.52062C26.8187 9.64045 26.5648 9.8169 26.3556 10.0387C26.1464 10.2606 25.9864 10.5229 25.8858 10.8091C25.7852 11.0952 25.7462 11.3989 25.7713 11.7007C25.7713 12.9854 26.5727 13.9975 27.9217 13.9975C29.2707 13.9975 30.1794 13.1077 30.1794 11.6284C30.1794 10.3772 29.4118 9.34279 28.012 9.34279H27.9951ZM21.2051 9.42621V13.9196H22.2323V12.04H23.9256V13.9196H24.9529V9.42621H23.9538V11.1502H22.2605V9.42621H21.2051Z" fill="black"/>
<path d="M60.1339 3.18657H58.4406V2.25229H60.2242V1.41811H57.4021V5.91154H60.3032V5.07737H58.4293V4.00962H60.1226L60.1339 3.18657ZM52.6214 1.41811V5.91154H53.6486V4.03187H55.3419V5.91154H56.3692V1.41811H55.3419V3.14208H53.6486V1.41811H52.6214ZM51.6449 4.99395C51.3678 5.09139 51.0756 5.14032 50.7814 5.13854C50.5834 5.15329 50.3845 5.12515 50.1987 5.0561C50.0129 4.98705 49.8448 4.87877 49.706 4.73885C49.5672 4.59894 49.4612 4.43078 49.3954 4.2462C49.3296 4.06161 49.3056 3.86508 49.3252 3.67039C49.3042 3.47559 49.3267 3.27864 49.391 3.09328C49.4553 2.90793 49.5599 2.73864 49.6975 2.59725C49.8351 2.45585 50.0024 2.34575 50.1876 2.27465C50.3729 2.20354 50.5717 2.17314 50.7701 2.18556C51.0684 2.18115 51.3644 2.23797 51.6393 2.35239L51.8312 1.57383C51.475 1.4241 51.0891 1.35566 50.7023 1.37362C50.3753 1.34884 50.0467 1.39282 49.7382 1.50267C49.4298 1.61252 49.1485 1.78572 48.9132 2.01079C48.6778 2.23586 48.4937 2.50765 48.373 2.80816C48.2523 3.10866 48.1979 3.431 48.2132 3.75381C48.1954 4.06309 48.2458 4.3725 48.3609 4.66079C48.4759 4.94909 48.6529 5.20943 48.8798 5.42394C49.1066 5.63845 49.3779 5.80204 49.6749 5.90349C49.972 6.00494 50.2878 6.04183 50.6007 6.01164C50.9992 6.02059 51.3958 5.95453 51.7691 5.817L51.6449 4.99395ZM44.4937 5.70022C44.8978 5.88751 45.3396 5.98256 45.7862 5.97828C47.0392 5.97828 47.6206 5.33874 47.6206 4.58798C47.6206 3.95401 47.2481 3.53692 46.4409 3.24218C45.8483 3.02529 45.5943 2.89739 45.5943 2.60821C45.5943 2.31903 45.8144 2.17443 46.2603 2.17443C46.5893 2.17233 46.9142 2.24664 47.2086 2.39132L47.4287 1.57383C47.0603 1.41669 46.6616 1.34076 46.2603 1.35138C45.1936 1.35138 44.5332 1.9075 44.5332 2.69718C44.5332 3.3534 45.0355 3.76493 45.7919 4.03187C46.3563 4.22095 46.5595 4.37666 46.5595 4.66028C46.5595 4.9439 46.3111 5.1441 45.837 5.1441C45.4444 5.13561 45.0587 5.0406 44.7082 4.86604L44.4937 5.70022ZM42.6085 5.91154H43.6358V1.41811H42.5972L42.6085 5.91154ZM38.7422 5.91154V4.56018C38.7422 3.8261 38.7422 3.19213 38.6914 2.59152C38.926 3.13426 39.1917 3.66343 39.4872 4.17646L40.4637 5.91154H41.5587V1.41811H40.6161V2.72499C40.6096 3.35247 40.636 3.97986 40.6951 4.60467V4.60467C40.4765 4.07771 40.2278 3.56341 39.9501 3.06422L38.9962 1.39587H37.7827V5.91154H38.7422ZM32.9851 1.41811V5.91154H34.018V4.03187H35.7113V5.91154H36.7385V1.41811H35.7169V3.14208H34.0236V1.41811H32.9851ZM32.0086 4.99395C31.7315 5.09139 31.4393 5.14032 31.1451 5.13854C30.9471 5.15329 30.7482 5.12515 30.5624 5.0561C30.3766 4.98705 30.2085 4.87877 30.0697 4.73885C29.9309 4.59894 29.8249 4.43078 29.7591 4.2462C29.6933 4.06161 29.6693 3.86508 29.6889 3.67039C29.6688 3.4753 29.6921 3.27824 29.7571 3.0929C29.8221 2.90757 29.9273 2.73839 30.0653 2.59711C30.2033 2.45583 30.3709 2.34584 30.5563 2.27477C30.7418 2.2037 30.9408 2.17326 31.1394 2.18556C31.436 2.18094 31.7302 2.23778 32.003 2.35239L32.2231 1.57383C31.8665 1.42573 31.4809 1.35736 31.0943 1.37362C30.7675 1.34974 30.4392 1.39436 30.1312 1.50453C29.8231 1.61471 29.5422 1.78794 29.3071 2.01282C29.0719 2.2377 28.8878 2.50912 28.7668 2.80921C28.6458 3.10929 28.5907 3.43123 28.6052 3.75381C28.5874 4.06309 28.6377 4.3725 28.7528 4.66079C28.8679 4.94909 29.0449 5.20943 29.2717 5.42394C29.4985 5.63845 29.7698 5.80204 30.0669 5.90349C30.3639 6.00494 30.6798 6.04183 30.9927 6.01164C31.3912 6.02114 31.7878 5.95506 32.161 5.817L32.0086 4.99395ZM27.7755 3.18657H26.0822V2.25229H27.8601V1.41811H25.038V5.91154H27.9391V5.07737H26.0991V4.00962H27.7924L27.7755 3.18657ZM22.1312 5.91154H23.1585V2.26897H24.4058V1.41811H20.8726V2.26897H22.103L22.1312 5.91154Z" fill="black"/>
</g>
<defs>
<clipPath id="clip0">
<rect width="64" height="22" fill="white"/>
</clipPath>
</defs>
</svg>
